<svg xmlns="http://www.w3.org/2000/svg" viewBox="0 0 240 240" role="img" aria-labelledby="title desc">
  <title id="title">全栈工程师章鱼头像</title>
  <desc id="desc">一只多手拿着 API、CSS 和数据库工具的卡通章鱼工程师。</desc>
  <rect width="240" height="240" rx="36" fill="#ffd9c8"/>
  <circle cx="120" cy="93" r="55" fill="#ff7f70" stroke="#231f20" stroke-width="7"/>
  <circle cx="99" cy="88" r="8" fill="#231f20"/>
  <circle cx="141" cy="88" r="8" fill="#231f20"/>
  <path d="M101 116c14 11 27 11 39 0" fill="none" stroke="#231f20" stroke-width="6" stroke-linecap="round"/>
  <path d="M76 139c-28 0-35 16-45 37M93 146c-15 15-18 33-13 52M112 149c-3 18 2 33 13 48M132 149c8 17 21 28 40 35M149 143c24 3 39 17 54 40M69 123c-24-8-37-3-51 15M171 123c24-8 37-3 51 15" fill="none" stroke="#ff7f70" stroke-width="18" stroke-linecap="round"/>
  <path d="M76 139c-28 0-35 16-45 37M93 146c-15 15-18 33-13 52M112 149c-3 18 2 33 13 48M132 149c8 17 21 28 40 35M149 143c24 3 39 17 54 40M69 123c-24-8-37-3-51 15M171 123c24-8 37-3 51 15" fill="none" stroke="#231f20" stroke-width="6" stroke-linecap="round"/>
  <rect x="24" y="129" width="46" height="25" rx="7" fill="#fff5dc" stroke="#231f20" stroke-width="5"/>
  <path d="M32 145h29" stroke="#22b8a7" stroke-width="5" stroke-linecap="round"/>
  <rect x="158" y="129" width="56" height="29" rx="7" fill="#fff5dc" stroke="#231f20" stroke-width="5"/>
  <path d="M167 144h37" stroke="#f45b3f" stroke-width="5" stroke-linecap="round"/>
  <ellipse cx="121" cy="190" rx="34" ry="15" fill="#fff5dc" stroke="#231f20" stroke-width="6"/>
  <path d="M93 190h56M104 181v18M120 178v23M137 181v18" stroke="#231f20" stroke-width="4" stroke-linecap="round"/>
  <path d="M69 47h102l-9 21H78z" fill="#f4c542" stroke="#231f20" stroke-width="7" stroke-linejoin="round"/>
</svg>
